HIERARCHY
ROOT Hips
{
	OFFSET 0.00000 0.00000 0.00000
	CHANNELS 6 Xposition Yposition Zposition Zrotation Yrotation Xrotation 
	JOINT LHipJoint
	{
		OFFSET 0 0 0
		CHANNELS 3 Zrotation Yrotation Xrotation
		JOINT LeftHip
		{
			OFFSET 1.37959 -1.78713 0.86582
			CHANNELS 3 Zrotation Yrotation Xrotation
			JOINT LeftKnee
			{
				OFFSET 2.54611 -6.99539 0.00000
				CHANNELS 3 Zrotation Yrotation Xrotation
				JOINT LeftAnkle
				{
					OFFSET 2.59951 -7.14211 0.00000
					CHANNELS 3 Zrotation Yrotation Xrotation
					JOINT LeftToe
					{
						OFFSET 0.18493 -0.50810 1.96120
						CHANNELS 3 Zrotation Yrotation Xrotation
						End Site
						{
							OFFSET 0.00000 -0.00000 1.02054
						}
					}
				}
			}
		}
	}
	JOINT RHipJoint
	{
		OFFSET 0 0 0
		CHANNELS 3 Zrotation Yrotation Xrotation
		JOINT RightHip
		{
			OFFSET -1.33564 -1.78713 0.86582
			CHANNELS 3 Zrotation Yrotation Xrotation
			JOINT RightKnee
			{
				OFFSET -2.52705 -6.94302 0.00000
				CHANNELS 3 Zrotation Yrotation Xrotation
				JOINT RightAnkle
				{
					OFFSET -2.55964 -7.03257 0.00000
					CHANNELS 3 Zrotation Yrotation Xrotation
					JOINT RightToe
					{
						OFFSET -0.25804 -0.70896 2.12109
						CHANNELS 3 Zrotation Yrotation Xrotation
						End Site
						{
							OFFSET -0.00000 -0.00000 1.11821
						}
					}
				}
			}
		}
	}
	JOINT lowerback
	{
		OFFSET 0 0 0
		CHANNELS 3 Zrotation Yrotation Xrotation
		JOINT Chest
		{
			OFFSET -0.02031 2.24248 -0.18900
			CHANNELS 3 Zrotation Yrotation Xrotation
			JOINT Chest2
			{
				OFFSET 0.08342 2.24689 -0.03799
				CHANNELS 3 Zrotation Yrotation Xrotation
				JOINT lowerneck
				{
					OFFSET 0 0 0
					CHANNELS 3 Zrotation Yrotation Xrotation
					JOINT Neck
					{
						OFFSET -0.11607 1.55844 0.24628
						CHANNELS 3 Zrotation Yrotation Xrotation
						JOINT Head
						{
							OFFSET 0.06877 1.60174 -0.17013
							CHANNELS 3 Zrotation Yrotation Xrotation
							End Site
							{
								OFFSET 0.03358 1.61266 -0.08543
							}
						}
					}
				}
				JOINT LeftCollar
				{
					OFFSET 0 0 0
					CHANNELS 3 Zrotation Yrotation Xrotation
					JOINT LeftShoulder
					{
						OFFSET 3.47537 0.55866 -0.72348
CHANNELS 3 Zrotation Xrotation Yrotation
						JOINT LeftElbow
						{
OFFSET 0 -5.381540 0.000000
CHANNELS 3 Zrotation Xrotation Yrotation
							JOINT LeftWrist
							{
OFFSET 0 -3.333120 0.000000
CHANNELS 3 Zrotation Xrotation Yrotation
								JOINT lhand
								{
									OFFSET 0 0 0
CHANNELS 3 Zrotation Xrotation Yrotation
									JOINT LFingers
									{
OFFSET 0 -0.710790 0.000000
CHANNELS 3 Zrotation Xrotation Yrotation
										End Site
										{
OFFSET 0 -0.573060 0.000000
										}
									}
								}
								JOINT LThumb
								{
OFFSET 0 0.000000 0.000000
CHANNELS 3 Zrotation Xrotation Yrotation
									End Site
									{
OFFSET 0 -0.581810 0.581810
									}
								}
							}
						}
					}
				}
				JOINT RightCollar
				{
					OFFSET 0 0 0
					CHANNELS 3 Zrotation Yrotation Xrotation
					JOINT RightShoulder
					{
						OFFSET -3.27844 0.90739 -0.35708
CHANNELS 3 Zrotation Xrotation Yrotation
						JOINT RightElbow
						{
OFFSET 0 -5.169540 0.000000
CHANNELS 3 Zrotation Xrotation Yrotation
							JOINT RightWrist
							{
OFFSET 0 -3.382870 0.000000
CHANNELS 3 Zrotation Xrotation Yrotation
								JOINT rhand
								{
									OFFSET 0 0 0
CHANNELS 3 Zrotation Xrotation Yrotation
									JOINT RFingers
									{
OFFSET 0 -0.817970 0.000000
CHANNELS 3 Zrotation Xrotation Yrotation
										End Site
										{
OFFSET 0 -0.659470 0.000000
										}
									}
								}
								JOINT RThumb
								{
OFFSET 0 0.000000 0.000000
CHANNELS 3 Zrotation Xrotation Yrotation
									End Site
									{
OFFSET 0 -0.669530 0.669530
									}
								}
							}
						}
					}
				}
			}
		}
	}
}
MOTION
Frames: 5
Frame Time: 0.008333333333333333
3.532650 17.726075 8.634553 -177.574583 12.423000 179.826346 0.000000 0.000000 0.000000 -6.294305 -3.917027 -28.245323 3.074197 10.813281 31.653702 0.626690 -8.422538 -14.420153 1.494343 -7.722019 -21.872942 0.000000 0.000000 0.000000 23.006144 3.517731 3.349506 -1.397014 -7.476764 21.136094 -0.980881 3.489070 -17.872311 -0.151585 -2.507749 6.911235 4.246325 0.239609 3.434495 6.616231 1.051714 1.055327 4.411687 0.739907 -0.905649 -9.130596 -2.190330 -19.452399 3.062213 -0.940547 15.445386 2.396044 -0.657903 8.048690 0.000000 0.000000 0.000000 70.891119 -52.388387 10.784175 18.749062 -29.105712 4.908223 -4.699799 13.608274 -33.591951 0.000000 0.000000 0.000000 -7.125000 0.000000 0.000000 -41.472591 58.462224 15.321259 0.000000 0.000000 0.000000 -29.938534 -53.285055 28.088656 -17.283160 -27.229543 -4.216073 -7.507978 -4.896030 -25.453282 0.000000 0.000000 0.000000 7.125000 0.000000 0.000000 13.419382 4.919717 12.576370
3.527636 17.723722 8.590470 -177.663474 12.631756 179.846200 0.000000 0.000000 0.000000 -6.322079 -3.944144 -28.315780 3.016902 10.722346 31.349097 0.633849 -8.236359 -14.459723 1.487723 -7.705538 -21.823326 0.000000 0.000000 0.000000 22.870018 3.613512 3.595283 -1.374340 -7.418732 20.962159 -0.987574 3.515163 -17.931962 -0.157195 -2.554424 7.040703 4.121991 0.248869 3.396989 6.609499 1.050724 1.055728 4.475130 0.737257 -0.885657 -9.269495 -2.184856 -19.300635 3.134995 -0.923041 15.361665 2.444620 -0.649217 7.994682 0.000000 0.000000 0.000000 70.747350 -52.345885 10.759016 18.764744 -29.125350 4.915842 -4.794891 13.619595 -33.633220 0.000000 0.000000 0.000000 -7.125000 0.000000 0.000000 -41.603313 58.472444 15.391546 0.000000 0.000000 0.000000 -29.896631 -53.207550 28.316398 -17.287586 -27.235320 -4.218103 -7.676162 -5.065867 -25.485455 0.000000 0.000000 0.000000 7.125000 0.000000 0.000000 13.319016 4.871552 12.489315
3.520559 17.716504 8.546483 -177.711124 12.799560 179.848334 0.000000 0.000000 0.000000 -6.338899 -3.926507 -28.360301 2.962603 10.633377 31.054062 0.651416 -8.019732 -14.608005 1.527371 -7.801797 -22.114343 0.000000 0.000000 0.000000 22.753064 3.585954 3.805972 -1.354534 -7.366886 20.807298 -0.992624 3.596771 -17.967770 -0.149692 -2.491839 6.867138 4.064385 0.262381 3.369182 6.579664 1.056307 1.082646 4.476517 0.737861 -0.842594 -9.259859 -2.179060 -19.246691 3.145592 -0.927735 15.245209 2.444833 -0.648328 7.946571 0.000000 0.000000 0.000000 70.659483 -52.421342 10.837993 18.748173 -29.104583 4.907770 -4.697886 13.799525 -33.697333 0.000000 0.000000 0.000000 -7.125000 0.000000 0.000000 -41.580022 58.543207 15.453811 0.000000 0.000000 0.000000 -29.820286 -53.146317 28.412231 -17.285311 -27.232333 -4.217072 -7.819537 -5.108111 -25.432792 0.000000 0.000000 0.000000 7.125000 0.000000 0.000000 13.231861 4.908321 12.393625
3.513483 17.709285 8.502496 -177.758773 12.967365 179.850467 0.000000 0.000000 0.000000 -6.355718 -3.908869 -28.404821 2.908304 10.544408 30.759027 0.668982 -7.803105 -14.756287 1.567020 -7.898056 -22.405360 0.000000 0.000000 0.000000 22.636110 3.558395 4.016660 -1.334727 -7.315041 20.652438 -0.997673 3.678380 -18.003579 -0.142189 -2.429255 6.693573 4.006779 0.275894 3.341374 6.549830 1.061890 1.109564 4.477904 0.738466 -0.799532 -9.250222 -2.173263 -19.192748 3.156188 -0.932428 15.128752 2.445047 -0.647439 7.898459 0.000000 0.000000 0.000000 70.571616 -52.496799 10.916970 18.731603 -29.083817 4.899698 -4.600880 13.979455 -33.761447 0.000000 0.000000 0.000000 -7.125000 0.000000 0.000000 -41.556730 58.613970 15.516075 0.000000 0.000000 0.000000 -29.743940 -53.085084 28.508063 -17.283035 -27.229346 -4.216041 -7.962912 -5.150355 -25.380129 0.000000 0.000000 0.000000 7.125000 0.000000 0.000000 13.144705 4.945089 12.297935
3.506276 17.701626 8.458700 -177.751531 13.151015 179.864020 0.000000 0.000000 0.000000 -6.318087 -3.863205 -28.457535 2.855056 10.456380 30.467898 0.685847 -7.546231 -14.896556 1.635627 -8.056429 -22.888617 0.000000 0.000000 0.000000 22.578845 3.538921 4.227489 -1.315271 -7.263827 20.499591 -1.002582 3.758876 -18.038435 -0.130570 -2.322006 6.396673 4.002622 0.286792 3.319317 6.533629 1.069376 1.138596 4.463434 0.741384 -0.757151 -9.214111 -2.157230 -19.182097 3.140341 -0.920565 15.050148 2.434482 -0.640239 7.869139 0.000000 0.000000 0.000000 70.495969 -52.549718 10.970535 18.717066 -29.065594 4.892618 -4.462516 14.153044 -33.825460 0.000000 0.000000 0.000000 -7.125000 0.000000 0.000000 -41.494875 58.694119 15.569745 0.000000 0.000000 0.000000 -29.664579 -53.018392 28.613601 -17.296094 -27.246382 -4.222041 -8.072211 -5.185087 -25.315145 0.000000 0.000000 0.000000 7.125000 0.000000 0.000000 13.077773 4.997383 12.218382
